# xmcd
#
# Track frame offsets:
# 150
# 17076
# 34691
# 50873
# 68982
# 83887
# 100109
# 115900
# 136188
# 152409
# 168721
# 185301
# 199200
# 214466
#
# Disc length: 3075 seconds
#
#
# Revision: 1
# Processed by: cddbd v1.5.1PL0 Copyright (c) Steve Scherf et al.
# Submitted via: FreeRIP 2.90 
#
DISCID=c50c010e
DTITLE=CHICO REY and PARANA - VOL 14
DYEAR=1900
DGENRE=Country
TTITLE0=UM DEGRAU NA ESCADA
TTITLE1=DE CA PRA CA
TTITLE2=CASAL NOTA MIL
TTITLE3=DONA DA VERDADE
TTITLE4=ENTRE AMIGOS E WHISKY
TTITLE5=EM ALGUM LUGAR DO PASSADO
TTITLE6=EM FRENTE AO PORTÃO
TTITLE7=DIREITOS IGUAIS
TTITLE8=DE CARONA COM A SAUDADE
TTITLE9=NUNCA FUI O HOMEM DO SEU CORAÇÃO
TTITLE10=MEMÓRIAS
TTITLE11=MERGULHADO NA SAUDADE
TTITLE12=CÉU DA BOCA
TTITLE13=BAMBA RELOGIO
EXTD=
EXTT0=
EXTT1=
EXTT2=
EXTT3=
EXTT4=
EXTT5=
EXTT6=
EXTT7=
EXTT8=
EXTT9=
EXTT10=
EXTT11=
EXTT12=
EXTT13=
PLAYORDER=
